<?xml version="1.0" encoding="UTF-8" standalone="no"?>
<svg width="259px" height="74px" viewBox="0 0 259 74" version="1.1" xmlns="http://www.w3.org/2000/svg" xmlns:xlink="http://www.w3.org/1999/xlink">
    <!-- Generator: Sketch 3.7.2 (28276) - http://www.bohemiancoding.com/sketch -->
    <title>Group 2</title>
    <desc>Created with Sketch.</desc>
    <defs></defs>
    <g id="Welcome" stroke="none" stroke-width="1" fill="none" fill-rule="evenodd">
        <g id="Desktop-HD" transform="translate(-590.000000, -3928.000000)">
            <g id="Group-2" transform="translate(590.000000, 3927.847656)">
                <g id="Group" transform="translate(76.483781, 14.408418)" fill="#FFFFFF">
                    <path d="M2.48020757,36.9998041 C4.04239184,37.8117893 6.85407303,38.9364618 9.5405123,38.8742583 C11.9768852,38.8742583 13.2890031,37.5621404 13.2890031,35.9373352 C13.2890031,34.3759858 12.351776,33.3135169 9.72754024,31.8139535 C6.47876473,29.9394994 4.04197436,27.3156811 4.04197436,23.8794602 C4.04197436,17.818586 9.22740749,13.507759 16.7874275,13.507759 C20.098824,13.507759 22.6604388,14.1327162 24.0347602,14.9447013 L22.0354816,21.067779 C20.8486056,20.5054428 18.9115305,19.8804856 16.6621856,19.8804856 C14.2253952,19.8804856 12.6636284,21.005158 12.6636284,22.7543702 C12.6636284,24.1291091 13.7883009,25.1289571 15.9750249,26.3158331 C19.3490423,28.2524907 22.160306,30.877144 22.160306,34.5634313 C22.160306,41.4354556 16.5999821,45.3091883 8.85251667,45.2465674 C5.29105382,45.1847814 1.97965735,44.2467193 0.355269591,43.1224643 L2.48020757,36.9998041 L2.48020757,36.9998041 Z" id="Shape"></path>
                    <path d="M23.9103532,44.6846486 L32.2823583,0.637481393 L40.9044299,0.637481393 L37.5930334,17.9438279 L37.7182753,18.0060314 C40.0298238,15.2569712 43.0289504,13.445138 46.8400621,13.445138 C51.3383346,13.445138 53.9003669,16.3816437 53.9003669,21.2548069 C53.9003669,22.7543702 53.649883,25.0037152 53.2754097,26.8785868 L49.9018097,44.6846486 L41.2797382,44.6846486 L44.5285137,27.4400881 C44.7785801,26.2527946 44.9034045,24.8162698 44.9034045,23.6289763 C44.9034045,21.7545222 44.1532054,20.4424043 42.2165478,20.4424043 C39.4674875,20.4424043 36.5309819,23.9412462 35.4063094,29.6268121 L32.5324247,44.6842311 L23.9103532,44.6842311 L23.9103532,44.6846486 Z" id="Shape"></path>
                    <path d="M85.0772565,25.5038479 C85.0772565,36.187819 78.2043972,45.3091883 68.0205588,45.3091883 C60.2735109,45.3091883 56.1501293,39.9358923 56.1501293,33.2504784 C56.1501293,22.8169912 63.0221537,13.445138 73.3938549,13.445138 C81.4535901,13.4455555 85.0772565,19.3181493 85.0772565,25.5038479 L85.0772565,25.5038479 Z M64.9596462,33.0638679 C64.9596462,36.1874015 66.2087257,38.6868129 69.1456488,38.6868129 C73.7061247,38.6868129 76.268157,30.5648741 76.268157,25.2533641 C76.268157,22.6921667 75.268309,20.067931 72.2065614,20.067931 C67.5204261,20.067931 64.9596462,28.1276662 64.9596462,33.0638679 L64.9596462,33.0638679 Z" id="Shape"></path>
                    <path d="M83.0161919,56.929969 L89.0140276,25.3790235 C89.7011883,21.8175606 90.3887665,17.0692218 90.7636573,13.9452708 L98.3858808,13.9452708 L97.8861655,18.5687851 L98.01099,18.5687851 C100.322538,15.3200096 103.696556,13.4455555 107.132777,13.4455555 C113.442882,13.4455555 116.004915,18.6314061 116.004915,24.441379 C116.004915,34.9379046 109.382539,45.3091883 99.2613219,45.3091883 C97.1363839,45.3091883 95.1997263,44.8094731 94.2002957,44.1849333 L94.0128503,44.1849333 L91.6382634,56.929969 L83.0161919,56.929969 L83.0161919,56.929969 Z M95.3241332,37.5625579 C96.2617778,38.311922 97.3234118,38.8116373 98.8855961,38.8116373 C103.696138,38.8116373 107.007535,30.877144 107.007535,25.3164025 C107.007535,23.0048541 106.19555,20.5680637 103.571731,20.5680637 C100.572605,20.5680637 97.7613411,24.1291091 96.7619105,29.5024051 L95.3241332,37.5625579 L95.3241332,37.5625579 Z" id="Shape"></path>
                    <path d="M116.254981,44.6846486 L122.066206,14.1327162 L130.750064,14.1327162 L124.877888,44.6846486 L116.254981,44.6846486 L116.254981,44.6846486 Z M127.438667,10.3842254 C125.002295,10.3842254 123.377907,8.63501319 123.377907,6.0729809 C123.377907,3.2612997 125.564631,1.07457571 128.313274,1.07457571 C130.937092,1.07457571 132.624101,2.88640888 132.624101,5.38582021 C132.562315,8.57197476 130.249514,10.3842254 127.563909,10.3842254 L127.438667,10.3842254 L127.438667,10.3842254 Z" id="Shape"></path>
                    <path d="M132.374034,44.6846486 L136.935345,20.5676462 L132.936788,20.5676462 L134.185867,14.0700952 L138.184424,14.0700952 L138.434908,12.6331529 C139.122069,9.00906907 140.49639,5.38582021 143.433314,2.88640888 C145.744862,0.887130295 148.805775,0.0121067193 151.867522,0.0121067193 C153.991625,0.0121067193 155.553809,0.324794056 156.553657,0.761888371 L154.866649,7.50950577 C154.117285,7.25943939 153.242261,7.07241145 152.118006,7.07241145 C149.243704,7.07241145 147.494074,9.69664723 146.994359,12.6331529 L146.682089,14.0700952 L152.679925,14.0700952 L151.492631,20.5676462 L145.557417,20.5676462 L140.996106,44.6846486 L132.374034,44.6846486 L132.374034,44.6846486 Z" id="Shape"></path>
                    <path d="M163.363061,14.1327162 L164.7378,27.8780173 C165.112691,30.93893 165.362339,33.125654 165.487999,35.1249325 L165.612823,35.1249325 C166.299984,33.0634505 166.924941,31.1263754 168.174856,27.8149789 L173.422492,14.1322987 L182.419455,14.1322987 L171.860308,36.7489028 C168.111817,44.4967857 164.488568,50.1823516 160.551797,53.8686389 C157.490885,56.7421061 153.866383,58.1794659 152.117589,58.5547742 L149.743002,51.2439856 C151.180361,50.7442704 152.992195,49.9949062 154.616582,48.8076127 C156.615861,47.4328739 158.30287,45.5592547 159.302718,43.6217621 C159.552367,43.1846678 159.614988,42.809777 159.490163,42.1852373 L154.304313,14.1322987 L163.363061,14.1322987 L163.363061,14.1327162 Z" id="Shape"></path>
                </g>
                <g id="shopify" transform="translate(0.128744, 0.506880)">
                    <g id="Group">
                        <path d="M55.8589502,13.8824228 C55.5926263,13.8600327 49.9550465,13.4422815 49.9550465,13.4422815 C49.9550465,13.4422815 46.039733,9.55525022 45.6101974,9.12512549 C45.1800727,8.69500076 44.3404456,8.82580581 44.0146115,8.92184736 C43.9662961,8.93598845 43.1590759,9.18522511 41.8233322,9.59826269 C40.5152817,5.83496595 38.2073385,2.3762918 34.1464898,2.3762918 C34.0345396,2.3762918 33.9190538,2.38100549 33.8035683,2.38748683 C32.648713,0.86024945 31.2181062,0.196796792 29.9825288,0.196796792 C20.5233202,0.196796792 16.0040645,12.0216914 14.5870098,18.0310641 C10.9115057,19.1700108 8.30011828,19.9795881 7.96662431,20.0844678 C5.91498831,20.7278872 5.85017498,20.7927006 5.58090511,22.725905 C5.37762701,24.1895074 0.00931691398,65.7053815 0.00931691398,65.7053815 L41.8404193,73.5430789 L64.5062247,68.639657 C64.5062247,68.639657 56.5495065,14.8463735 56.4994234,14.4775269 C56.4487512,14.1086802 56.1258632,13.9048128 55.8589502,13.8824228 Z M39.5112646,10.313566 C38.4606996,10.638811 37.2663671,11.0082469 35.9718683,11.408911 C35.9730469,11.1596744 35.9742252,10.913973 35.9742252,10.6458815 C35.9742252,8.30671008 35.6495695,6.4235887 35.1287061,4.93052561 C37.2209976,5.19331414 38.614484,7.57373042 39.5112646,10.313566 L39.5112646,10.313566 L39.5112646,10.313566 Z M32.5332275,5.3942354 C33.1147796,6.85194579 33.4930537,8.9436482 33.4930537,11.7665627 C33.4930537,11.9109196 33.4918751,12.0429031 33.4906968,12.1766542 C31.1886458,12.8896006 28.6874409,13.6638251 26.1803441,14.4404065 C27.5879714,9.00787232 30.2264626,6.3841115 32.5332275,5.3942354 L32.5332275,5.3942354 L32.5332275,5.3942354 Z M29.7226864,2.73394346 C30.1310103,2.73394346 30.5422801,2.87240825 30.9358738,3.14344576 C27.9043782,4.5699279 24.6548744,8.16294237 23.2825998,15.3377763 C21.2769223,15.9588057 19.3166141,16.565694 17.5041982,17.127213 C19.1115684,11.6546124 22.9284834,2.73394346 29.7226864,2.73394346 Z M34.1464898,26.4061227 L31.3518575,34.7193143 C31.3518575,34.7193143 28.9030927,33.4124422 25.9016469,33.4124422 C21.501412,33.4124422 21.2798684,36.1740785 21.2798684,36.8699378 C21.2798684,40.6668195 31.1774506,42.121584 31.1774506,51.0151491 C31.1774506,58.012041 26.7395064,62.5177449 20.7554697,62.5177449 C13.5747437,62.5177449 9.9027748,58.0485722 9.9027748,58.0485722 L11.8253734,51.6962781 C11.8253734,51.6962781 15.5998652,54.9369439 18.785145,54.9369439 C20.8662416,54.9369439 21.7129391,53.2983455 21.7129391,52.1010667 C21.7129391,47.148151 13.5930092,46.9271966 13.5930092,38.7890012 C13.5930092,31.9394122 18.5093938,25.3107778 28.4334905,25.3107778 C32.2574763,25.3107778 34.1464898,26.4061227 34.1464898,26.4061227 Z" id="Combined-Shape" fill="#FFFFFF"></path>
                        <path d="M55.8589502,13.8824228 C55.5926263,13.8600327 49.9550465,13.4422815 49.9550465,13.4422815 C49.9550465,13.4422815 46.039733,9.55525022 45.6101974,9.12512549 C45.4493426,8.96485983 45.2325125,8.88295938 45.0056661,8.84760665 L41.8427763,73.5424898 L64.5062247,68.639657 C64.5062247,68.639657 56.5495065,14.8463735 56.4994234,14.4775269 C56.4487512,14.1086802 56.1258632,13.9048128 55.8589502,13.8824228" id="Shape" fill="#EDEDED"></path>
                    </g>
                </g>
            </g>
        </g>
    </g>
</svg>